# xmcd
#
# Track frame offsets:
#	150
#	17499
#	34396
#	53309
#	71700
#	89980
#	110977
#	128246
#	146522
#	172785
#	196670
#	218351
#	232640
#	248430
#	264890
#	284586
#	304106
#
# Disc length: 4369 seconds
#
# Revision: 0
# Processed by: cddbd v1.5.2PL0 Copyright (c) Steve Scherf et al.
# Submitted via: EZCDAudioConverter 1.1.0.1
#
DISCID=e2110f11
DTITLE=Adele
DYEAR=1900
DGENRE=
TTITLE0=Rolling In The Deep
TTITLE1=Rmour Has It
TTITLE2=Turning Tables
TTITLE3=Don't You Remember
TTITLE4=Set Fire To The Rain
TTITLE5=He Won't Go
TTITLE6=Take It All
TTITLE7=I'll Be Waiting
TTITLE8=One And Only
TTITLE9=Lovesong
TTITLE10=Someone Like You
TTITLE11=If It Hadn't Been For Love
TTITLE12=Hiding My Heart
TTITLE13=I Found A Boy
TTITLE14=Turning Tables (Acoustic)
TTITLE15=Don't You Remember (Acoustic)
TTITLE16=Someone Like You (Acoustic)
EXTD=
EXTT0=
EXTT1=
EXTT2=
EXTT3=
EXTT4=
EXTT5=
EXTT6=
EXTT7=
EXTT8=
EXTT9=
EXTT10=
EXTT11=
EXTT12=
EXTT13=
EXTT14=
EXTT15=
EXTT16=
PLAYORDER=
